<mxfile host="app.diagrams.net" modified="2022-01-25T02:02:34.342Z" agent="5.0 (Macintosh; Intel Mac OS X 10_15_7) AppleWebKit/537.36 (KHTML, like Gecko) Chrome/97.0.4692.71 Safari/537.36" etag="-n5Kz7Dkiaih9Nw8knE7" version="16.4.3" type="github">
  <diagram id="C5RBs43oDa-KdzZeNtuy" name="Page-1">
    <mxGraphModel dx="4760" dy="933" grid="1" gridSize="10" guides="1" tooltips="1" connect="1" arrows="1" fold="1" page="1" pageScale="1" pageWidth="827" pageHeight="1169" math="0" shadow="0">
      <root>
        <mxCell id="WIyWlLk6GJQsqaUBKTNV-0" />
        <mxCell id="WIyWlLk6GJQsqaUBKTNV-1" parent="WIyWlLk6GJQsqaUBKTNV-0" />
        <mxCell id="w49pAxF8M9OPk1wEsKyt-19" value="&lt;&lt;Interface&gt;&gt;&#xa;ITuyaSecurityArmSocketInterface" style="swimlane;fontStyle=1;align=center;verticalAlign=top;childLayout=stackLayout;horizontal=1;startSize=40;horizontalStack=0;resizeParent=1;resizeParentMax=0;resizeLast=0;collapsible=1;marginBottom=0;fillColor=#dae8fc;strokeColor=#6c8ebf;comic=1;" parent="WIyWlLk6GJQsqaUBKTNV-1" vertex="1">
          <mxGeometry x="-1100" y="2170" width="530" height="118" as="geometry" />
        </mxCell>
        <mxCell id="w49pAxF8M9OPk1wEsKyt-22" value="+currentHomeId:long" style="text;strokeColor=none;fillColor=none;align=left;verticalAlign=top;spacingLeft=4;spacingRight=4;overflow=hidden;rotatable=0;points=[[0,0.5],[1,0.5]];portConstraint=eastwest;comic=1;" parent="w49pAxF8M9OPk1wEsKyt-19" vertex="1">
          <mxGeometry y="40" width="530" height="26" as="geometry" />
        </mxCell>
        <mxCell id="adrRqGBL54-iiWniBTVd-10" value="+ bizTag" style="text;strokeColor=none;fillColor=none;align=left;verticalAlign=top;spacingLeft=4;spacingRight=4;overflow=hidden;rotatable=0;points=[[0,0.5],[1,0.5]];portConstraint=eastwest;comic=1;" vertex="1" parent="w49pAxF8M9OPk1wEsKyt-19">
          <mxGeometry y="66" width="530" height="26" as="geometry" />
        </mxCell>
        <mxCell id="adrRqGBL54-iiWniBTVd-11" value="+ deivceiList" style="text;strokeColor=none;fillColor=none;align=left;verticalAlign=top;spacingLeft=4;spacingRight=4;overflow=hidden;rotatable=0;points=[[0,0.5],[1,0.5]];portConstraint=eastwest;comic=1;" vertex="1" parent="w49pAxF8M9OPk1wEsKyt-19">
          <mxGeometry y="92" width="530" height="26" as="geometry" />
        </mxCell>
        <mxCell id="w49pAxF8M9OPk1wEsKyt-23" value="AbsTuyaSecurityArmSocketInterface" style="swimlane;fontStyle=1;align=center;verticalAlign=top;childLayout=stackLayout;horizontal=1;startSize=26;horizontalStack=0;resizeParent=1;resizeParentMax=0;resizeLast=0;collapsible=1;marginBottom=0;fillColor=#dae8fc;strokeColor=#6c8ebf;comic=1;" parent="WIyWlLk6GJQsqaUBKTNV-1" vertex="1">
          <mxGeometry x="-1760" y="2210" width="500" height="78" as="geometry" />
        </mxCell>
        <mxCell id="w49pAxF8M9OPk1wEsKyt-26" value="injectArmSocket(iTuyaSecurityArmSocketInterface: ITuyaSecurityArmSocketInterface)" style="text;strokeColor=none;fillColor=none;align=left;verticalAlign=top;spacingLeft=4;spacingRight=4;overflow=hidden;rotatable=0;points=[[0,0.5],[1,0.5]];portConstraint=eastwest;comic=1;" parent="w49pAxF8M9OPk1wEsKyt-23" vertex="1">
          <mxGeometry y="26" width="500" height="26" as="geometry" />
        </mxCell>
        <mxCell id="w49pAxF8M9OPk1wEsKyt-30" value="obtainArmSocket(): ITuyaSecurityArmSocketInterface" style="text;strokeColor=none;fillColor=none;align=left;verticalAlign=top;spacingLeft=4;spacingRight=4;overflow=hidden;rotatable=0;points=[[0,0.5],[1,0.5]];portConstraint=eastwest;comic=1;" parent="w49pAxF8M9OPk1wEsKyt-23" vertex="1">
          <mxGeometry y="52" width="500" height="26" as="geometry" />
        </mxCell>
        <mxCell id="w49pAxF8M9OPk1wEsKyt-27" value="Use" style="endArrow=open;endSize=12;dashed=1;html=1;rounded=0;exitX=1;exitY=0.25;exitDx=0;exitDy=0;entryX=0;entryY=0.5;entryDx=0;entryDy=0;comic=1;" parent="WIyWlLk6GJQsqaUBKTNV-1" source="w49pAxF8M9OPk1wEsKyt-23" target="w49pAxF8M9OPk1wEsKyt-19" edge="1">
          <mxGeometry width="160" relative="1" as="geometry">
            <mxPoint x="-915" y="2281.0000000000005" as="sourcePoint" />
            <mxPoint x="-605" y="2243" as="targetPoint" />
          </mxGeometry>
        </mxCell>
        <mxCell id="w49pAxF8M9OPk1wEsKyt-33" value="&lt;&lt;Interface&gt;&gt;&#xa;ITuyaSecurity" style="swimlane;fontStyle=1;align=center;verticalAlign=top;childLayout=stackLayout;horizontal=1;startSize=40;horizontalStack=0;resizeParent=1;resizeParentMax=0;resizeLast=0;collapsible=1;marginBottom=0;labelBackgroundColor=none;fontSize=12;fillColor=#dae8fc;strokeColor=#6c8ebf;comic=1;" parent="WIyWlLk6GJQsqaUBKTNV-1" vertex="1">
          <mxGeometry x="-1070" y="1180" width="540" height="196" as="geometry">
            <mxRectangle x="-900" y="1740" width="220" height="70" as="alternateBounds" />
          </mxGeometry>
        </mxCell>
        <mxCell id="w49pAxF8M9OPk1wEsKyt-34" value="+ registerSecutityModeListener(homeId:long,listener:TuyaSecurityModeListener)" style="text;strokeColor=none;fillColor=none;align=left;verticalAlign=top;spacingLeft=4;spacingRight=4;overflow=hidden;rotatable=0;points=[[0,0.5],[1,0.5]];portConstraint=eastwest;labelBackgroundColor=none;fontSize=12;fontColor=default;comic=1;" parent="w49pAxF8M9OPk1wEsKyt-33" vertex="1">
          <mxGeometry y="40" width="540" height="26" as="geometry" />
        </mxCell>
        <mxCell id="w49pAxF8M9OPk1wEsKyt-35" value="+ unregisterListener(listener:TuyaSecurityModeListener)" style="text;strokeColor=none;fillColor=none;align=left;verticalAlign=top;spacingLeft=4;spacingRight=4;overflow=hidden;rotatable=0;points=[[0,0.5],[1,0.5]];portConstraint=eastwest;labelBackgroundColor=none;fontSize=12;fontColor=default;comic=1;" parent="w49pAxF8M9OPk1wEsKyt-33" vertex="1">
          <mxGeometry y="66" width="540" height="26" as="geometry" />
        </mxCell>
        <mxCell id="w49pAxF8M9OPk1wEsKyt-37" value="+ getAlarmInfo(homeId:long,callback)" style="text;strokeColor=none;fillColor=none;align=left;verticalAlign=top;spacingLeft=4;spacingRight=4;overflow=hidden;rotatable=0;points=[[0,0.5],[1,0.5]];portConstraint=eastwest;labelBackgroundColor=none;fontSize=12;fontColor=default;comic=1;" parent="w49pAxF8M9OPk1wEsKyt-33" vertex="1">
          <mxGeometry y="92" width="540" height="26" as="geometry" />
        </mxCell>
        <mxCell id="w49pAxF8M9OPk1wEsKyt-36" value="+ triggerAlarm(homeId:long,alarmType:AlarmType,callback)" style="text;strokeColor=none;fillColor=none;align=left;verticalAlign=top;spacingLeft=4;spacingRight=4;overflow=hidden;rotatable=0;points=[[0,0.5],[1,0.5]];portConstraint=eastwest;labelBackgroundColor=none;fontSize=12;fontColor=default;comic=1;" parent="w49pAxF8M9OPk1wEsKyt-33" vertex="1">
          <mxGeometry y="118" width="540" height="26" as="geometry" />
        </mxCell>
        <mxCell id="w49pAxF8M9OPk1wEsKyt-38" value="+ cancelAlarm(homeId:Long,action:CancelAlarmAction,callback)" style="text;strokeColor=none;fillColor=none;align=left;verticalAlign=top;spacingLeft=4;spacingRight=4;overflow=hidden;rotatable=0;points=[[0,0.5],[1,0.5]];portConstraint=eastwest;labelBackgroundColor=none;fontSize=12;fontColor=default;comic=1;" parent="w49pAxF8M9OPk1wEsKyt-33" vertex="1">
          <mxGeometry y="144" width="540" height="26" as="geometry" />
        </mxCell>
        <mxCell id="w49pAxF8M9OPk1wEsKyt-39" value="..." style="text;strokeColor=none;fillColor=none;align=left;verticalAlign=top;spacingLeft=4;spacingRight=4;overflow=hidden;rotatable=0;points=[[0,0.5],[1,0.5]];portConstraint=eastwest;labelBackgroundColor=none;fontSize=12;fontColor=default;comic=1;" parent="w49pAxF8M9OPk1wEsKyt-33" vertex="1">
          <mxGeometry y="170" width="540" height="26" as="geometry" />
        </mxCell>
        <mxCell id="w49pAxF8M9OPk1wEsKyt-45" value="&lt;&lt;Interface&gt;&gt;&#xa;TuyaSecurityModeListener" style="swimlane;fontStyle=1;align=center;verticalAlign=top;childLayout=stackLayout;horizontal=1;startSize=40;horizontalStack=0;resizeParent=1;resizeParentMax=0;resizeLast=0;collapsible=1;marginBottom=0;labelBackgroundColor=none;fontSize=12;fillColor=#dae8fc;strokeColor=#6c8ebf;comic=1;" parent="WIyWlLk6GJQsqaUBKTNV-1" vertex="1">
          <mxGeometry x="-490" y="1156" width="500" height="404" as="geometry">
            <mxRectangle x="-215" y="2267" width="190" height="40" as="alternateBounds" />
          </mxGeometry>
        </mxCell>
        <mxCell id="w49pAxF8M9OPk1wEsKyt-46" value="+ homeWillAlarm(delayTime:long)" style="text;strokeColor=none;fillColor=none;align=left;verticalAlign=top;spacingLeft=4;spacingRight=4;overflow=hidden;rotatable=0;points=[[0,0.5],[1,0.5]];portConstraint=eastwest;labelBackgroundColor=none;fontSize=12;fontColor=default;comic=1;" parent="w49pAxF8M9OPk1wEsKyt-45" vertex="1">
          <mxGeometry y="40" width="500" height="26" as="geometry" />
        </mxCell>
        <mxCell id="w49pAxF8M9OPk1wEsKyt-47" value="+ homeDidAlarm&#xa;" style="text;strokeColor=none;fillColor=none;align=left;verticalAlign=top;spacingLeft=4;spacingRight=4;overflow=hidden;rotatable=0;points=[[0,0.5],[1,0.5]];portConstraint=eastwest;labelBackgroundColor=none;fontSize=12;fontColor=default;comic=1;" parent="w49pAxF8M9OPk1wEsKyt-45" vertex="1">
          <mxGeometry y="66" width="500" height="26" as="geometry" />
        </mxCell>
        <mxCell id="w49pAxF8M9OPk1wEsKyt-48" value="+ homeDidCancelAlarm" style="text;strokeColor=none;fillColor=none;align=left;verticalAlign=top;spacingLeft=4;spacingRight=4;overflow=hidden;rotatable=0;points=[[0,0.5],[1,0.5]];portConstraint=eastwest;labelBackgroundColor=none;fontSize=12;fontColor=default;comic=1;" parent="w49pAxF8M9OPk1wEsKyt-45" vertex="1">
          <mxGeometry y="92" width="500" height="26" as="geometry" />
        </mxCell>
        <mxCell id="w49pAxF8M9OPk1wEsKyt-49" value="+ homeDidEnterMode(mode:ModeType,delayTime:long)" style="text;strokeColor=none;fillColor=none;align=left;verticalAlign=top;spacingLeft=4;spacingRight=4;overflow=hidden;rotatable=0;points=[[0,0.5],[1,0.5]];portConstraint=eastwest;labelBackgroundColor=none;fontSize=12;fontColor=default;comic=1;" parent="w49pAxF8M9OPk1wEsKyt-45" vertex="1">
          <mxGeometry y="118" width="500" height="26" as="geometry" />
        </mxCell>
        <mxCell id="w49pAxF8M9OPk1wEsKyt-50" value="+ operationError(errorType:SDKErrorCode,errorMessage:String)" style="text;strokeColor=none;fillColor=none;align=left;verticalAlign=top;spacingLeft=4;spacingRight=4;overflow=hidden;rotatable=0;points=[[0,0.5],[1,0.5]];portConstraint=eastwest;labelBackgroundColor=none;fontSize=12;fontColor=default;comic=1;" parent="w49pAxF8M9OPk1wEsKyt-45" vertex="1">
          <mxGeometry y="144" width="500" height="26" as="geometry" />
        </mxCell>
        <mxCell id="w49pAxF8M9OPk1wEsKyt-51" value="+ alarmVoiceDidChanaged(open:bool)" style="text;strokeColor=none;fillColor=none;align=left;verticalAlign=top;spacingLeft=4;spacingRight=4;overflow=hidden;rotatable=0;points=[[0,0.5],[1,0.5]];portConstraint=eastwest;labelBackgroundColor=none;fontSize=12;fontColor=default;comic=1;" parent="w49pAxF8M9OPk1wEsKyt-45" vertex="1">
          <mxGeometry y="170" width="500" height="26" as="geometry" />
        </mxCell>
        <mxCell id="w49pAxF8M9OPk1wEsKyt-52" value="+ shouldUpdateIrregularDevices" style="text;strokeColor=none;fillColor=none;align=left;verticalAlign=top;spacingLeft=4;spacingRight=4;overflow=hidden;rotatable=0;points=[[0,0.5],[1,0.5]];portConstraint=eastwest;labelBackgroundColor=none;fontSize=12;fontColor=default;comic=1;" parent="w49pAxF8M9OPk1wEsKyt-45" vertex="1">
          <mxGeometry y="196" width="500" height="26" as="geometry" />
        </mxCell>
        <mxCell id="w49pAxF8M9OPk1wEsKyt-53" value="+ shouldUpdateAbnormalDevices" style="text;strokeColor=none;fillColor=none;align=left;verticalAlign=top;spacingLeft=4;spacingRight=4;overflow=hidden;rotatable=0;points=[[0,0.5],[1,0.5]];portConstraint=eastwest;labelBackgroundColor=none;fontSize=12;fontColor=default;comic=1;" parent="w49pAxF8M9OPk1wEsKyt-45" vertex="1">
          <mxGeometry y="222" width="500" height="26" as="geometry" />
        </mxCell>
        <mxCell id="w49pAxF8M9OPk1wEsKyt-54" value="+ homeOnlineStateDidChange(online:bool)" style="text;strokeColor=none;fillColor=none;align=left;verticalAlign=top;spacingLeft=4;spacingRight=4;overflow=hidden;rotatable=0;points=[[0,0.5],[1,0.5]];portConstraint=eastwest;labelBackgroundColor=none;fontSize=12;fontColor=default;comic=1;" parent="w49pAxF8M9OPk1wEsKyt-45" vertex="1">
          <mxGeometry y="248" width="500" height="26" as="geometry" />
        </mxCell>
        <mxCell id="w49pAxF8M9OPk1wEsKyt-55" value="+ shouldUpdateAlarmDetailInfo" style="text;strokeColor=none;fillColor=none;align=left;verticalAlign=top;spacingLeft=4;spacingRight=4;overflow=hidden;rotatable=0;points=[[0,0.5],[1,0.5]];portConstraint=eastwest;labelBackgroundColor=none;fontSize=12;fontColor=default;comic=1;" parent="w49pAxF8M9OPk1wEsKyt-45" vertex="1">
          <mxGeometry y="274" width="500" height="26" as="geometry" />
        </mxCell>
        <mxCell id="w49pAxF8M9OPk1wEsKyt-56" value="+ hasArmAbility(list:List&lt;String&gt;)" style="text;strokeColor=none;fillColor=none;align=left;verticalAlign=top;spacingLeft=4;spacingRight=4;overflow=hidden;rotatable=0;points=[[0,0.5],[1,0.5]];portConstraint=eastwest;labelBackgroundColor=none;fontSize=12;fontColor=default;comic=1;" parent="w49pAxF8M9OPk1wEsKyt-45" vertex="1">
          <mxGeometry y="300" width="500" height="26" as="geometry" />
        </mxCell>
        <mxCell id="w49pAxF8M9OPk1wEsKyt-57" value="+ onArmedDeviceResult(mode:ModeType,deviceId:String,success:bool,isFirstUpload:bool)" style="text;strokeColor=none;fillColor=none;align=left;verticalAlign=top;spacingLeft=4;spacingRight=4;overflow=hidden;rotatable=0;points=[[0,0.5],[1,0.5]];portConstraint=eastwest;labelBackgroundColor=none;fontSize=12;fontColor=default;comic=1;" parent="w49pAxF8M9OPk1wEsKyt-45" vertex="1">
          <mxGeometry y="326" width="500" height="26" as="geometry" />
        </mxCell>
        <mxCell id="w49pAxF8M9OPk1wEsKyt-58" value="+ hasSecurityGatewayOnlineState(gatewayState:int)" style="text;strokeColor=none;fillColor=none;align=left;verticalAlign=top;spacingLeft=4;spacingRight=4;overflow=hidden;rotatable=0;points=[[0,0.5],[1,0.5]];portConstraint=eastwest;labelBackgroundColor=none;fontSize=12;fontColor=default;comic=1;" parent="w49pAxF8M9OPk1wEsKyt-45" vertex="1">
          <mxGeometry y="352" width="500" height="26" as="geometry" />
        </mxCell>
        <mxCell id="w49pAxF8M9OPk1wEsKyt-59" value="+ homeStateBean(bean:HomeBaseStateBean)" style="text;strokeColor=none;fillColor=none;align=left;verticalAlign=top;spacingLeft=4;spacingRight=4;overflow=hidden;rotatable=0;points=[[0,0.5],[1,0.5]];portConstraint=eastwest;labelBackgroundColor=none;fontSize=12;fontColor=default;comic=1;" parent="w49pAxF8M9OPk1wEsKyt-45" vertex="1">
          <mxGeometry y="378" width="500" height="26" as="geometry" />
        </mxCell>
        <mxCell id="w49pAxF8M9OPk1wEsKyt-61" value="SecurityArmedManager" style="swimlane;fontStyle=1;align=center;verticalAlign=top;childLayout=stackLayout;horizontal=1;startSize=26;horizontalStack=0;resizeParent=1;resizeParentMax=0;resizeLast=0;collapsible=1;marginBottom=0;labelBackgroundColor=none;fontSize=12;fillColor=#f8cecc;strokeColor=#b85450;comic=1;" parent="WIyWlLk6GJQsqaUBKTNV-1" vertex="1" collapsed="1">
          <mxGeometry x="-1595" y="1680" width="170" height="26" as="geometry">
            <mxRectangle x="-690" y="1300" width="210" height="60" as="alternateBounds" />
          </mxGeometry>
        </mxCell>
        <mxCell id="w49pAxF8M9OPk1wEsKyt-62" value="" style="line;strokeWidth=1;fillColor=none;align=left;verticalAlign=middle;spacingTop=-1;spacingLeft=3;spacingRight=3;rotatable=0;labelPosition=right;points=[];portConstraint=eastwest;labelBackgroundColor=none;fontSize=12;fontColor=default;" parent="w49pAxF8M9OPk1wEsKyt-61" vertex="1">
          <mxGeometry y="26" width="170" height="8" as="geometry" />
        </mxCell>
        <mxCell id="w49pAxF8M9OPk1wEsKyt-63" value="+ method(type): type" style="text;strokeColor=none;fillColor=none;align=left;verticalAlign=top;spacingLeft=4;spacingRight=4;overflow=hidden;rotatable=0;points=[[0,0.5],[1,0.5]];portConstraint=eastwest;labelBackgroundColor=none;fontSize=12;fontColor=default;" parent="w49pAxF8M9OPk1wEsKyt-61" vertex="1">
          <mxGeometry y="34" width="170" height="26" as="geometry" />
        </mxCell>
        <mxCell id="w49pAxF8M9OPk1wEsKyt-66" value="«interface»&#xa;IArmedView" style="swimlane;fontStyle=1;align=center;verticalAlign=top;childLayout=stackLayout;horizontal=1;startSize=40;horizontalStack=0;resizeParent=1;resizeParentMax=0;resizeLast=0;collapsible=1;marginBottom=0;labelBackgroundColor=none;fontSize=12;fillColor=#dae8fc;strokeColor=#6c8ebf;comic=1;" parent="WIyWlLk6GJQsqaUBKTNV-1" vertex="1">
          <mxGeometry x="-1500" y="1170" width="330" height="300" as="geometry">
            <mxRectangle x="-780" y="1313" width="160" height="60" as="alternateBounds" />
          </mxGeometry>
        </mxCell>
        <mxCell id="w49pAxF8M9OPk1wEsKyt-67" value="+ onEmpty" style="text;strokeColor=none;fillColor=none;align=left;verticalAlign=top;spacingLeft=4;spacingRight=4;overflow=hidden;rotatable=0;points=[[0,0.5],[1,0.5]];portConstraint=eastwest;labelBackgroundColor=none;fontSize=12;fontColor=default;comic=1;" parent="w49pAxF8M9OPk1wEsKyt-66" vertex="1">
          <mxGeometry y="40" width="330" height="26" as="geometry" />
        </mxCell>
        <mxCell id="w49pAxF8M9OPk1wEsKyt-68" value="+ setAlarmSate(mode:ModeType,count:int,maxTime:int )" style="text;strokeColor=none;fillColor=none;align=left;verticalAlign=top;spacingLeft=4;spacingRight=4;overflow=hidden;rotatable=0;points=[[0,0.5],[1,0.5]];portConstraint=eastwest;labelBackgroundColor=none;fontSize=12;fontColor=default;comic=1;" parent="w49pAxF8M9OPk1wEsKyt-66" vertex="1">
          <mxGeometry y="66" width="330" height="26" as="geometry" />
        </mxCell>
        <mxCell id="w49pAxF8M9OPk1wEsKyt-69" value="+ setArmedState(mode:ModeType,count:int,maxTime:int)" style="text;strokeColor=none;fillColor=none;align=left;verticalAlign=top;spacingLeft=4;spacingRight=4;overflow=hidden;rotatable=0;points=[[0,0.5],[1,0.5]];portConstraint=eastwest;labelBackgroundColor=none;fontSize=12;fontColor=default;comic=1;" parent="w49pAxF8M9OPk1wEsKyt-66" vertex="1">
          <mxGeometry y="92" width="330" height="26" as="geometry" />
        </mxCell>
        <mxCell id="w49pAxF8M9OPk1wEsKyt-70" value="+ onOnline" style="text;strokeColor=none;fillColor=none;align=left;verticalAlign=top;spacingLeft=4;spacingRight=4;overflow=hidden;rotatable=0;points=[[0,0.5],[1,0.5]];portConstraint=eastwest;labelBackgroundColor=none;fontSize=12;fontColor=default;comic=1;" parent="w49pAxF8M9OPk1wEsKyt-66" vertex="1">
          <mxGeometry y="118" width="330" height="26" as="geometry" />
        </mxCell>
        <mxCell id="w49pAxF8M9OPk1wEsKyt-71" value="+ onOffline" style="text;strokeColor=none;fillColor=none;align=left;verticalAlign=top;spacingLeft=4;spacingRight=4;overflow=hidden;rotatable=0;points=[[0,0.5],[1,0.5]];portConstraint=eastwest;labelBackgroundColor=none;fontSize=12;fontColor=default;comic=1;" parent="w49pAxF8M9OPk1wEsKyt-66" vertex="1">
          <mxGeometry y="144" width="330" height="26" as="geometry" />
        </mxCell>
        <mxCell id="w49pAxF8M9OPk1wEsKyt-72" value="+ onInit" style="text;strokeColor=none;fillColor=none;align=left;verticalAlign=top;spacingLeft=4;spacingRight=4;overflow=hidden;rotatable=0;points=[[0,0.5],[1,0.5]];portConstraint=eastwest;labelBackgroundColor=none;fontSize=12;fontColor=default;comic=1;" parent="w49pAxF8M9OPk1wEsKyt-66" vertex="1">
          <mxGeometry y="170" width="330" height="26" as="geometry" />
        </mxCell>
        <mxCell id="w49pAxF8M9OPk1wEsKyt-73" value="+ setArmedListener(listener:ArmedListener)" style="text;strokeColor=none;fillColor=none;align=left;verticalAlign=top;spacingLeft=4;spacingRight=4;overflow=hidden;rotatable=0;points=[[0,0.5],[1,0.5]];portConstraint=eastwest;labelBackgroundColor=none;fontSize=12;fontColor=default;comic=1;" parent="w49pAxF8M9OPk1wEsKyt-66" vertex="1">
          <mxGeometry y="196" width="330" height="26" as="geometry" />
        </mxCell>
        <mxCell id="w49pAxF8M9OPk1wEsKyt-74" value="+ showIgnorePage(homeId:long,device:list&lt;String&gt;)" style="text;strokeColor=none;fillColor=none;align=left;verticalAlign=top;spacingLeft=4;spacingRight=4;overflow=hidden;rotatable=0;points=[[0,0.5],[1,0.5]];portConstraint=eastwest;labelBackgroundColor=none;fontSize=12;fontColor=default;comic=1;" parent="w49pAxF8M9OPk1wEsKyt-66" vertex="1">
          <mxGeometry y="222" width="330" height="26" as="geometry" />
        </mxCell>
        <mxCell id="w49pAxF8M9OPk1wEsKyt-75" value="+ setArmDeviceState(stayingNum:int,leavingNum:int)" style="text;strokeColor=none;fillColor=none;align=left;verticalAlign=top;spacingLeft=4;spacingRight=4;overflow=hidden;rotatable=0;points=[[0,0.5],[1,0.5]];portConstraint=eastwest;labelBackgroundColor=none;fontSize=12;fontColor=default;comic=1;" parent="w49pAxF8M9OPk1wEsKyt-66" vertex="1">
          <mxGeometry y="248" width="330" height="26" as="geometry" />
        </mxCell>
        <mxCell id="w49pAxF8M9OPk1wEsKyt-76" value="+ setAbnormalDevice(num:int)" style="text;strokeColor=none;fillColor=none;align=left;verticalAlign=top;spacingLeft=4;spacingRight=4;overflow=hidden;rotatable=0;points=[[0,0.5],[1,0.5]];portConstraint=eastwest;labelBackgroundColor=none;fontSize=12;fontColor=default;comic=1;" parent="w49pAxF8M9OPk1wEsKyt-66" vertex="1">
          <mxGeometry y="274" width="330" height="26" as="geometry" />
        </mxCell>
        <mxCell id="w49pAxF8M9OPk1wEsKyt-77" value="" style="endArrow=open;endFill=1;endSize=12;html=1;rounded=0;exitX=1;exitY=0.5;exitDx=0;exitDy=0;comic=1;" parent="WIyWlLk6GJQsqaUBKTNV-1" source="w49pAxF8M9OPk1wEsKyt-63" target="w49pAxF8M9OPk1wEsKyt-76" edge="1">
          <mxGeometry width="160" relative="1" as="geometry">
            <mxPoint x="60" y="1310" as="sourcePoint" />
            <mxPoint x="220" y="1310" as="targetPoint" />
          </mxGeometry>
        </mxCell>
        <mxCell id="w49pAxF8M9OPk1wEsKyt-78" value="ArmedFragment" style="swimlane;fontStyle=1;align=center;verticalAlign=top;childLayout=stackLayout;horizontal=1;startSize=26;horizontalStack=0;resizeParent=1;resizeParentMax=0;resizeLast=0;collapsible=1;marginBottom=0;labelBackgroundColor=none;fontSize=12;fillColor=#d5e8d4;strokeColor=#82b366;comic=1;" parent="WIyWlLk6GJQsqaUBKTNV-1" vertex="1" collapsed="1">
          <mxGeometry x="-1270" y="1680" width="130" height="26" as="geometry">
            <mxRectangle x="682" y="350" width="160" height="86" as="alternateBounds" />
          </mxGeometry>
        </mxCell>
        <mxCell id="w49pAxF8M9OPk1wEsKyt-79" value="+ field: type" style="text;strokeColor=none;fillColor=none;align=left;verticalAlign=top;spacingLeft=4;spacingRight=4;overflow=hidden;rotatable=0;points=[[0,0.5],[1,0.5]];portConstraint=eastwest;labelBackgroundColor=none;fontSize=12;fontColor=default;" parent="w49pAxF8M9OPk1wEsKyt-78" vertex="1">
          <mxGeometry y="26" width="130" height="26" as="geometry" />
        </mxCell>
        <mxCell id="w49pAxF8M9OPk1wEsKyt-80" value="" style="line;strokeWidth=1;fillColor=none;align=left;verticalAlign=middle;spacingTop=-1;spacingLeft=3;spacingRight=3;rotatable=0;labelPosition=right;points=[];portConstraint=eastwest;labelBackgroundColor=none;fontSize=12;fontColor=default;" parent="w49pAxF8M9OPk1wEsKyt-78" vertex="1">
          <mxGeometry y="52" width="130" height="8" as="geometry" />
        </mxCell>
        <mxCell id="w49pAxF8M9OPk1wEsKyt-81" value="+ method(type): type" style="text;strokeColor=none;fillColor=none;align=left;verticalAlign=top;spacingLeft=4;spacingRight=4;overflow=hidden;rotatable=0;points=[[0,0.5],[1,0.5]];portConstraint=eastwest;labelBackgroundColor=none;fontSize=12;fontColor=default;" parent="w49pAxF8M9OPk1wEsKyt-78" vertex="1">
          <mxGeometry y="60" width="130" height="26" as="geometry" />
        </mxCell>
        <mxCell id="w49pAxF8M9OPk1wEsKyt-96" value="ArmedMicroService" style="swimlane;fontStyle=1;align=center;verticalAlign=top;childLayout=stackLayout;horizontal=1;startSize=26;horizontalStack=0;resizeParent=1;resizeParentMax=0;resizeLast=0;collapsible=1;marginBottom=0;fillColor=#dae8fc;strokeColor=#6c8ebf;snapToPoint=0;autosize=0;container=0;glass=0;rounded=0;comic=1;" parent="WIyWlLk6GJQsqaUBKTNV-1" vertex="1">
          <mxGeometry x="-1990" y="1180" width="360" height="230" as="geometry" />
        </mxCell>
        <mxCell id="w49pAxF8M9OPk1wEsKyt-98" value="" style="line;strokeWidth=1;fillColor=none;align=left;verticalAlign=middle;spacingTop=-1;spacingLeft=3;spacingRight=3;rotatable=0;labelPosition=right;points=[];portConstraint=eastwest;comic=1;" parent="w49pAxF8M9OPk1wEsKyt-96" vertex="1">
          <mxGeometry y="26" width="360" height="8" as="geometry" />
        </mxCell>
        <mxCell id="w49pAxF8M9OPk1wEsKyt-99" value="+ gotoRuleSetting" style="text;strokeColor=none;fillColor=none;align=left;verticalAlign=top;spacingLeft=4;spacingRight=4;overflow=hidden;rotatable=0;points=[[0,0.5],[1,0.5]];portConstraint=eastwest;comic=1;" parent="w49pAxF8M9OPk1wEsKyt-96" vertex="1">
          <mxGeometry y="34" width="360" height="36" as="geometry" />
        </mxCell>
        <mxCell id="w49pAxF8M9OPk1wEsKyt-106" value="+ gotoDelaySetting" style="text;strokeColor=none;fillColor=none;align=left;verticalAlign=top;spacingLeft=4;spacingRight=4;overflow=hidden;rotatable=0;points=[[0,0.5],[1,0.5]];portConstraint=eastwest;comic=1;" parent="w49pAxF8M9OPk1wEsKyt-96" vertex="1">
          <mxGeometry y="70" width="360" height="40" as="geometry" />
        </mxCell>
        <mxCell id="w49pAxF8M9OPk1wEsKyt-107" value="+ getArmedView" style="text;strokeColor=none;fillColor=none;align=left;verticalAlign=top;spacingLeft=4;spacingRight=4;overflow=hidden;rotatable=0;points=[[0,0.5],[1,0.5]];portConstraint=eastwest;comic=1;" parent="w49pAxF8M9OPk1wEsKyt-96" vertex="1">
          <mxGeometry y="110" width="360" height="40" as="geometry" />
        </mxCell>
        <mxCell id="w49pAxF8M9OPk1wEsKyt-125" value="+ getArmedManager&#xa;" style="text;strokeColor=none;fillColor=none;align=left;verticalAlign=top;spacingLeft=4;spacingRight=4;overflow=hidden;rotatable=0;points=[[0,0.5],[1,0.5]];portConstraint=eastwest;comic=1;" parent="w49pAxF8M9OPk1wEsKyt-96" vertex="1">
          <mxGeometry y="150" width="360" height="40" as="geometry" />
        </mxCell>
        <mxCell id="w49pAxF8M9OPk1wEsKyt-108" value="..." style="text;strokeColor=none;fillColor=none;align=left;verticalAlign=top;spacingLeft=4;spacingRight=4;overflow=hidden;rotatable=0;points=[[0,0.5],[1,0.5]];portConstraint=eastwest;comic=1;" parent="w49pAxF8M9OPk1wEsKyt-96" vertex="1">
          <mxGeometry y="190" width="360" height="40" as="geometry" />
        </mxCell>
        <mxCell id="w49pAxF8M9OPk1wEsKyt-128" value="SecurityMicroServiceImpl" style="swimlane;fontStyle=1;align=center;verticalAlign=top;childLayout=stackLayout;horizontal=1;startSize=26;horizontalStack=0;resizeParent=1;resizeParentMax=0;resizeLast=0;collapsible=1;marginBottom=0;fillColor=#d5e8d4;strokeColor=#82b366;comic=1;" parent="WIyWlLk6GJQsqaUBKTNV-1" vertex="1">
          <mxGeometry x="-1710" y="1888" width="430" height="52" as="geometry" />
        </mxCell>
        <mxCell id="w49pAxF8M9OPk1wEsKyt-131" value="+ method(type): type" style="text;strokeColor=none;fillColor=none;align=left;verticalAlign=top;spacingLeft=4;spacingRight=4;overflow=hidden;rotatable=0;points=[[0,0.5],[1,0.5]];portConstraint=eastwest;comic=1;" parent="w49pAxF8M9OPk1wEsKyt-128" vertex="1">
          <mxGeometry y="26" width="430" height="26" as="geometry" />
        </mxCell>
        <mxCell id="w49pAxF8M9OPk1wEsKyt-132" value="Extends" style="endArrow=block;endSize=16;endFill=0;html=1;rounded=0;exitX=0.467;exitY=0.952;exitDx=0;exitDy=0;exitPerimeter=0;entryX=0.5;entryY=0;entryDx=0;entryDy=0;comic=1;" parent="WIyWlLk6GJQsqaUBKTNV-1" source="w49pAxF8M9OPk1wEsKyt-131" target="w49pAxF8M9OPk1wEsKyt-23" edge="1">
          <mxGeometry width="160" relative="1" as="geometry">
            <mxPoint x="-1260" y="2100" as="sourcePoint" />
            <mxPoint x="-1100" y="2100" as="targetPoint" />
          </mxGeometry>
        </mxCell>
        <mxCell id="w49pAxF8M9OPk1wEsKyt-134" value="Use" style="endArrow=open;endSize=12;dashed=1;html=1;rounded=0;exitX=0.5;exitY=1;exitDx=0;exitDy=0;entryX=0.466;entryY=-0.016;entryDx=0;entryDy=0;entryPerimeter=0;comic=1;" parent="WIyWlLk6GJQsqaUBKTNV-1" source="w49pAxF8M9OPk1wEsKyt-61" target="w49pAxF8M9OPk1wEsKyt-128" edge="1">
          <mxGeometry width="160" relative="1" as="geometry">
            <mxPoint x="-1450" y="1890" as="sourcePoint" />
            <mxPoint x="-1290" y="1890" as="targetPoint" />
          </mxGeometry>
        </mxCell>
        <mxCell id="w49pAxF8M9OPk1wEsKyt-135" value="ArmedMicroServiceImpl&#xa;" style="swimlane;fontStyle=1;align=center;verticalAlign=top;childLayout=stackLayout;horizontal=1;startSize=26;horizontalStack=0;resizeParent=1;resizeParentMax=0;resizeLast=0;collapsible=1;marginBottom=0;fillColor=#d5e8d4;strokeColor=#82b366;comic=1;" parent="WIyWlLk6GJQsqaUBKTNV-1" vertex="1" collapsed="1">
          <mxGeometry x="-1895" y="1680" width="170" height="26" as="geometry">
            <mxRectangle x="-2019" y="1667" width="160" height="52" as="alternateBounds" />
          </mxGeometry>
        </mxCell>
        <mxCell id="w49pAxF8M9OPk1wEsKyt-141" value="Extends" style="endArrow=block;endSize=16;endFill=0;html=1;rounded=0;exitX=0.5;exitY=0;exitDx=0;exitDy=0;comic=1;" parent="WIyWlLk6GJQsqaUBKTNV-1" source="w49pAxF8M9OPk1wEsKyt-135" target="w49pAxF8M9OPk1wEsKyt-108" edge="1">
          <mxGeometry width="160" relative="1" as="geometry">
            <mxPoint x="-1480" y="1671" as="sourcePoint" />
            <mxPoint x="-1320" y="1671" as="targetPoint" />
          </mxGeometry>
        </mxCell>
        <mxCell id="w49pAxF8M9OPk1wEsKyt-142" value="" style="endArrow=open;endFill=1;endSize=12;html=1;rounded=0;exitX=1;exitY=0.5;exitDx=0;exitDy=0;entryX=0;entryY=0.5;entryDx=0;entryDy=0;comic=1;" parent="WIyWlLk6GJQsqaUBKTNV-1" source="w49pAxF8M9OPk1wEsKyt-135" target="w49pAxF8M9OPk1wEsKyt-61" edge="1">
          <mxGeometry width="160" relative="1" as="geometry">
            <mxPoint x="-1500" y="1880" as="sourcePoint" />
            <mxPoint x="-1410" y="1670" as="targetPoint" />
          </mxGeometry>
        </mxCell>
        <mxCell id="w49pAxF8M9OPk1wEsKyt-152" value="" style="endArrow=block;dashed=1;endFill=0;endSize=12;html=1;rounded=0;exitX=0.5;exitY=0;exitDx=0;exitDy=0;entryX=0.492;entryY=1.128;entryDx=0;entryDy=0;entryPerimeter=0;comic=1;" parent="WIyWlLk6GJQsqaUBKTNV-1" source="w49pAxF8M9OPk1wEsKyt-78" target="w49pAxF8M9OPk1wEsKyt-76" edge="1">
          <mxGeometry width="160" relative="1" as="geometry">
            <mxPoint x="-1680" y="1600" as="sourcePoint" />
            <mxPoint x="-1520" y="1600" as="targetPoint" />
          </mxGeometry>
        </mxCell>
        <mxCell id="adrRqGBL54-iiWniBTVd-9" value="Bean" style="strokeWidth=2;html=1;shape=mxgraph.flowchart.multi-document;whiteSpace=wrap;comic=1;" vertex="1" parent="WIyWlLk6GJQsqaUBKTNV-1">
          <mxGeometry x="40" y="1229" width="250" height="147" as="geometry" />
        </mxCell>
        <mxCell id="adrRqGBL54-iiWniBTVd-16" value="business" style="ellipse;whiteSpace=wrap;html=1;comic=1;" vertex="1" parent="WIyWlLk6GJQsqaUBKTNV-1">
          <mxGeometry x="-960" y="1658" width="140" height="70" as="geometry" />
        </mxCell>
        <mxCell id="adrRqGBL54-iiWniBTVd-17" value="" style="endArrow=block;dashed=1;endFill=0;endSize=12;html=1;rounded=0;exitX=0.5;exitY=0;exitDx=0;exitDy=0;entryX=0.472;entryY=1.013;entryDx=0;entryDy=0;entryPerimeter=0;comic=1;" edge="1" parent="WIyWlLk6GJQsqaUBKTNV-1" source="adrRqGBL54-iiWniBTVd-16" target="w49pAxF8M9OPk1wEsKyt-39">
          <mxGeometry width="160" relative="1" as="geometry">
            <mxPoint x="-800" y="1420" as="sourcePoint" />
            <mxPoint x="-640" y="1420" as="targetPoint" />
          </mxGeometry>
        </mxCell>
        <mxCell id="adrRqGBL54-iiWniBTVd-20" value="&lt;h1&gt;安防插座&lt;/h1&gt;&lt;p&gt;向安防插头提供以下能力：&lt;/p&gt;&lt;p&gt;1.relationId 向安防插头提供id&lt;/p&gt;&lt;p&gt;2.bizTag 向安防插头初始化需要的标识&lt;/p&gt;&lt;p&gt;3.deviceList 向安防插头提供设备列表&lt;/p&gt;" style="text;html=1;strokeColor=none;fillColor=none;spacing=5;spacingTop=-20;whiteSpace=wrap;overflow=hidden;rounded=0;glass=0;comic=1;" vertex="1" parent="WIyWlLk6GJQsqaUBKTNV-1">
          <mxGeometry x="-2390" y="2100" width="360" height="160" as="geometry" />
        </mxCell>
        <mxCell id="adrRqGBL54-iiWniBTVd-21" value="" style="shape=link;html=1;rounded=0;comic=1;" edge="1" parent="WIyWlLk6GJQsqaUBKTNV-1">
          <mxGeometry width="100" relative="1" as="geometry">
            <mxPoint x="-2500" y="2050" as="sourcePoint" />
            <mxPoint x="630" y="2050" as="targetPoint" />
          </mxGeometry>
        </mxCell>
        <mxCell id="adrRqGBL54-iiWniBTVd-22" value="&lt;h1&gt;安防插头&lt;/h1&gt;&lt;p&gt;安防插头提供的能力有：&lt;/p&gt;&lt;p&gt;1.布撤防相关能力&lt;/p&gt;&lt;p&gt;2.报警相关能力&lt;/p&gt;" style="text;html=1;strokeColor=none;fillColor=none;spacing=5;spacingTop=-20;whiteSpace=wrap;overflow=hidden;rounded=0;glass=0;comic=1;" vertex="1" parent="WIyWlLk6GJQsqaUBKTNV-1">
          <mxGeometry x="-2390" y="1690" width="360" height="160" as="geometry" />
        </mxCell>
        <mxCell id="adrRqGBL54-iiWniBTVd-23" value="" style="endArrow=none;dashed=1;html=1;rounded=0;comic=1;" edge="1" parent="WIyWlLk6GJQsqaUBKTNV-1">
          <mxGeometry width="50" height="50" relative="1" as="geometry">
            <mxPoint x="-2230" y="1610" as="sourcePoint" />
            <mxPoint x="614.4444444444445" y="1610" as="targetPoint" />
          </mxGeometry>
        </mxCell>
        <mxCell id="adrRqGBL54-iiWniBTVd-24" value="&lt;h1&gt;&lt;font style=&quot;font-size: 22px&quot;&gt;安防插头API&lt;/font&gt;&lt;/h1&gt;&lt;p style=&quot;font-size: 12px&quot;&gt;插头api包，其中包含开放api、model等。&lt;/p&gt;" style="text;html=1;strokeColor=none;fillColor=none;spacing=5;spacingTop=-20;whiteSpace=wrap;overflow=hidden;rounded=0;glass=0;comic=1;fontSize=12;" vertex="1" parent="WIyWlLk6GJQsqaUBKTNV-1">
          <mxGeometry x="180" y="1430" width="190" height="120" as="geometry" />
        </mxCell>
        <mxCell id="adrRqGBL54-iiWniBTVd-25" value="&lt;h1&gt;&lt;font style=&quot;font-size: 22px&quot;&gt;安防插头实现&lt;/font&gt;&lt;/h1&gt;&lt;p style=&quot;font-size: 10px&quot;&gt;安防插头具体的业务逻辑实现&lt;/p&gt;" style="text;html=1;strokeColor=none;fillColor=none;spacing=5;spacingTop=-20;whiteSpace=wrap;overflow=hidden;rounded=0;glass=0;comic=1;fontSize=10;" vertex="1" parent="WIyWlLk6GJQsqaUBKTNV-1">
          <mxGeometry x="-530" y="1750" width="190" height="120" as="geometry" />
        </mxCell>
      </root>
    </mxGraphModel>
  </diagram>
</mxfile>
